<?xml version="1.0" encoding="UTF-8" standalone="no"?>
<svg
   width="320"
   height="320"
   viewBox="0 0 32 32"
   fill="none"
   version="1.1"
   id="svg3"
   sodipodi:docname="Fluent_Emoji_high_contrast_23f8.svg"
   inkscape:version="1.4.2 (ebf0e94, 2025-05-08)"
   xmlns:inkscape="http://www.inkscape.org/namespaces/inkscape"
   xmlns:sodipodi="http://sodipodi.sourceforge.net/DTD/sodipodi-0.dtd"
   xmlns="http://www.w3.org/2000/svg"
   xmlns:svg="http://www.w3.org/2000/svg">
  <defs
     id="defs3" />
  <sodipodi:namedview
     id="namedview3"
     pagecolor="#ffffff"
     bordercolor="#000000"
     borderopacity="0.25"
     inkscape:showpageshadow="2"
     inkscape:pageopacity="0.0"
     inkscape:pagecheckerboard="0"
     inkscape:deskcolor="#d1d1d1"
     inkscape:zoom="2.521875"
     inkscape:cx="160"
     inkscape:cy="160"
     inkscape:window-width="1920"
     inkscape:window-height="1009"
     inkscape:window-x="-8"
     inkscape:window-y="-8"
     inkscape:window-maximized="1"
     inkscape:current-layer="svg3" />
  <path
     d="M11 10C11 9.44772 11.4477 9 12 9H14C14.5523 9 15 9.44772 15 10V22C15 22.5523 14.5523 23 14 23H12C11.4477 23 11 22.5523 11 22V10Z"
     fill="#212121"
     id="path1" />
  <path
     d="M18 9C17.4477 9 17 9.44772 17 10V22C17 22.5523 17.4477 23 18 23H20C20.5523 23 21 22.5523 21 22V10C21 9.44772 20.5523 9 20 9H18Z"
     fill="#212121"
     id="path2" />
</svg>
