<?xml version="1.0" encoding="UTF-8" standalone="no"?>
<svg
   width="320"
   height="320"
   viewBox="0 0 32 32"
   fill="none"
   version="1.1"
   id="svg2"
   sodipodi:docname="Fluent_Emoji_high_contrast_23ed.svg"
   inkscape:version="1.4.2 (ebf0e94, 2025-05-08)"
   xmlns:inkscape="http://www.inkscape.org/namespaces/inkscape"
   xmlns:sodipodi="http://sodipodi.sourceforge.net/DTD/sodipodi-0.dtd"
   xmlns="http://www.w3.org/2000/svg"
   xmlns:svg="http://www.w3.org/2000/svg">
  <defs
     id="defs2" />
  <sodipodi:namedview
     id="namedview2"
     pagecolor="#ffffff"
     bordercolor="#000000"
     borderopacity="0.25"
     inkscape:showpageshadow="2"
     inkscape:pageopacity="0.0"
     inkscape:pagecheckerboard="0"
     inkscape:deskcolor="#d1d1d1"
     inkscape:zoom="2.521875"
     inkscape:cx="160"
     inkscape:cy="160"
     inkscape:window-width="1920"
     inkscape:window-height="1009"
     inkscape:window-x="-8"
     inkscape:window-y="-8"
     inkscape:window-maximized="1"
     inkscape:current-layer="svg2" />
  <path
     d="M9.69338 8.9692L16 15.0378V9.68977C16 8.80811 17.0581 8.35788 17.6934 8.9692L24 15.0377V9.5C24 9.22386 24.2239 9 24.5 9H25.5C25.7761 9 26 9.22386 26 9.5V22.5C26 22.7761 25.7761 23 25.5 23H24.5C24.2239 23 24 22.7761 24 22.5V16.9622L17.6934 23.0308C17.0581 23.6421 16 23.1919 16 22.3102V16.9622L9.69338 23.0308C9.05807 23.6421 8 23.1919 8 22.3102L8 9.68977C8 8.80811 9.05807 8.35788 9.69338 8.9692Z"
     fill="#212121"
     id="path1" />
</svg>
